# File created by Blade
# Date/Time:  Wed Apr 08 17:17:01 2015
# Frame Rate: 120.000 fps
#------------------------------------------------------
:FULLY-SPECIFIED
:DEGREES
1731
root 5.518536 35.995270 -1.067590 233.000207 -86.494388 -240.415088
Spine 11.723616 1.767111 -3.870755
Head 5.314330 7.241397 3.655424
LeftShoulder -6.087938 7.777537 29.012605
LeftArm 14.055863 -36.719805 -34.719706
LeftForeArm 27.934871 -0.000000 4.072782
LeftHand -11.297933 0.000000 -16.209855
LeftHandThumb1 -26.253704 0.000000 33.147579
RightShoulder -22.986652 -37.964281 -12.741675
RightArm 52.674626 49.835668 51.823131
RightForeArm 3.310425 -0.000000 -1.317273
RightHand -3.281933 -0.000000 8.993507
RightHandThumb1 -24.326973 -0.000000 -32.862282
LeftUpLeg 13.479928 12.723110 4.695576
LeftLeg 5.049033 -0.000000 -0.000000
LeftFoot -11.530035 8.942722 -17.078280
LeftToeBase 7.297852 -0.000000 -0.000000
RightUpLeg 14.167977 -10.764102 -13.448458
RightLeg 3.118188 -0.000000 -0.000000
RightFoot -10.947821 0.911083 19.543837
RightToeBase 10.903267 -0.000000 -0.000000
1732
root 5.526243 35.996457 -1.069447 232.948255 -86.500384 -240.343703
Spine 11.736744 1.774596 -3.862052
Head 5.300335 7.193491 3.666828
LeftShoulder -6.085557 7.773344 29.026705
LeftArm 14.071497 -36.714172 -34.721707
LeftForeArm 27.874774 -0.000000 4.070574
LeftHand -11.327063 -0.000000 -16.226042
LeftHandThumb1 -26.253704 0.000000 33.147579
RightShoulder -22.974820 -37.965114 -12.745338
RightArm 52.669856 49.820655 51.808521
RightForeArm 3.433070 -0.000000 -1.317910
RightHand -3.345519 0.000000 8.955709
RightHandThumb1 -24.326973 -0.000000 -32.862282
LeftUpLeg 13.444596 12.730592 4.702538
LeftLeg 5.053151 -0.000000 -0.000000
LeftFoot -11.517308 8.928126 -17.092269
LeftToeBase 7.319845 -0.000000 -0.000000
RightUpLeg 14.141806 -10.803819 -13.440252
RightLeg 3.108005 -0.000000 -0.000000
RightFoot -10.931063 0.933060 19.546074
RightToeBase 10.938854 -0.000000 -0.000000
1733
root 5.534325 35.997452 -1.070391 232.829226 -86.495866 -240.199309
Spine 11.743796 1.791624 -3.854376
Head 5.279200 7.162828 3.658886
LeftShoulder -6.148969 7.923447 28.948167
LeftArm 14.326764 -36.831851 -34.749171
LeftForeArm 27.897235 -0.000000 3.984270
LeftHand -11.333438 -0.000000 -16.267517
LeftHandThumb1 -26.253704 0.000000 33.147579
RightShoulder -22.966786 -37.945283 -12.766834
RightArm 52.697333 49.809937 51.841977
RightForeArm 3.482657 0.000000 -1.343505
RightHand -3.312060 -0.000000 8.962028
RightHandThumb1 -24.326973 -0.000000 -32.862282
LeftUpLeg 13.400800 12.738779 4.696248
LeftLeg 5.065183 -0.000000 -0.000000
LeftFoot -11.508000 8.942660 -17.081840
LeftToeBase 7.280360 -0.000000 -0.000000
RightUpLeg 14.102421 -10.816544 -13.434190
RightLeg 3.105695 -0.000000 -0.000000
RightFoot -10.908234 0.949481 19.556562
RightToeBase 10.947454 -0.000000 -0.000000
1734
root 5.542116 35.998176 -1.071943 232.775356 -86.493999 -240.118348
Spine 11.747037 1.803926 -3.857784
Head 5.259947 7.143524 3.684400
LeftShoulder -6.146544 7.902678 28.967636
LeftArm 14.326226 -36.818791 -34.732299
LeftForeArm 27.900144 -0.000000 3.976450
LeftHand -11.319756 0.000000 -16.312637
LeftHandThumb1 -26.253704 0.000000 33.147579
RightShoulder -22.956717 -37.932505 -12.765658
RightArm 52.723614 49.813735 51.868173
RightForeArm 3.495722 -0.000000 -1.356675
RightHand -3.276112 -0.000000 9.042533
RightHandThumb1 -24.326973 -0.000000 -32.862282
LeftUpLeg 13.359330 12.748185 4.692181
LeftLeg 5.066651 -0.000000 -0.000000
LeftFoot -11.496494 8.939144 -17.069028
LeftToeBase 7.281352 -0.000000 -0.000000
RightUpLeg 14.057358 -10.835608 -13.426413
RightLeg 3.112732 -0.000000 -0.000000
RightFoot -10.898780 0.964539 19.547064
RightToeBase 10.939479 -0.000000 -0.000000
1735
root 5.549392 35.999199 -1.072623 232.741974 -86.492460 -240.065602
Spine 11.754772 1.810724 -3.853970
Head 5.253295 7.117701 3.684057
LeftShoulder -6.136619 7.877401 28.983955
LeftArm 14.297982 -36.797626 -34.710374
LeftForeArm 27.893283 -0.000000 3.989101
LeftHand -11.277366 -0.000000 -16.362739
LeftHandThumb1 -26.253704 0.000000 33.147579
RightShoulder -22.934237 -37.917907 -12.785108
RightArm 52.756300 49.808680 51.925725
RightForeArm 3.606792 -0.000000 -1.329326
RightHand -3.372245 -0.000000 8.922118
RightHandThumb1 -24.326973 -0.000000 -32.862282
LeftUpLeg 13.324175 12.760903 4.688719
LeftLeg 5.073153 -0.000000 -0.000000
LeftFoot -11.490166 8.940676 -17.073415
LeftToeBase 7.309927 -0.000000 -0.000000
RightUpLeg 14.024892 -10.848844 -13.423492
RightLeg 3.112656 -0.000000 -0.000000
RightFoot -10.871697 0.984296 19.544818
RightToeBase 10.905576 -0.000000 -0.000000
1736
root 5.556684 36.000120 -1.074214 232.630475 -86.491865 -239.929302
Spine 11.753488 1.838130 -3.850297
Head 5.248454 7.111276 3.703769
LeftShoulder -6.109100 7.851477 29.008047
LeftArm 14.278946 -36.793385 -34.691684
LeftForeArm 27.906299 -0.000000 3.985737
LeftHand -11.227138 0.000000 -16.385386
LeftHandThumb1 -26.253704 0.000000 33.147579
RightShoulder -22.947970 -37.922469 -12.748150
RightArm 52.780616 49.781263 51.863789
RightForeArm 3.716939 0.000000 -1.430642
RightHand -3.293002 0.000000 8.932293
RightHandThumb1 -24.326973 -0.000000 -32.862282
LeftUpLeg 13.283019 12.775086 4.689443
LeftLeg 5.081876 -0.000000 -0.000000
LeftFoot -11.478185 8.938762 -17.069002
LeftToeBase 7.305515 -0.000000 -0.000000
RightUpLeg 13.981199 -10.836584 -13.404576
RightLeg 3.116545 -0.000000 -0.000000
RightFoot -10.870195 0.963109 19.550656
RightToeBase 10.940842 -0.000000 -0.000000
1737
root 5.564583 36.001257 -1.075509 232.664911 -86.498441 -239.931821
Spine 11.747585 1.834840 -3.847127
Head 5.240948 7.102134 3.719116
LeftShoulder -6.123918 7.857803 29.014830
LeftArm 14.315271 -36.774421 -34.695361
LeftForeArm 27.857241 0.000000 3.974105
LeftHand -11.224593 0.000000 -16.331481
LeftHandThumb1 -26.253704 0.000000 33.147579
RightShoulder -22.955591 -37.920773 -12.734507
RightArm 52.873836 49.772802 51.942006
RightForeArm 3.806181 0.000000 -1.400951
RightHand -3.399694 0.000000 8.852597
RightHandThumb1 -24.326973 -0.000000 -32.862282
LeftUpLeg 13.232829 12.781585 4.687445
LeftLeg 5.088556 -0.000000 -0.000000
LeftFoot -11.471901 8.939956 -17.056973
LeftToeBase 7.321253 -0.000000 -0.000000
RightUpLeg 13.936281 -10.858424 -13.391598
RightLeg 3.118604 -0.000000 -0.000000
RightFoot -10.858304 0.976111 19.569482
RightToeBase 10.948700 -0.000000 -0.000000
1738
root 5.571392 36.002343 -1.076589 232.472552 -86.499075 -239.708669
Spine 11.734796 1.849148 -3.832881
Head 5.252638 7.115156 3.718699
LeftShoulder -6.125370 7.838817 29.018237
LeftArm 14.332595 -36.752770 -34.701184
LeftForeArm 27.732022 0.000000 3.967024
LeftHand -11.258965 -0.000000 -16.263930
LeftHandThumb1 -26.253704 0.000000 33.147579
RightShoulder -22.931880 -37.882465 -12.744383
RightArm 52.852803 49.769908 51.930283
RightForeArm 3.701803 -0.000000 -1.388909
RightHand -3.356319 -0.000000 8.989704
RightHandThumb1 -24.326973 -0.000000 -32.862282
LeftUpLeg 13.192030 12.805407 4.693069
LeftLeg 5.090038 -0.000000 -0.000000
LeftFoot -11.461331 8.927382 -17.063084
LeftToeBase 7.312943 -0.000000 -0.000000
RightUpLeg 13.891371 -10.838349 -13.368913
RightLeg 3.116021 -0.000000 -0.000000
RightFoot -10.844045 0.965576 19.574183
RightToeBase 10.931846 -0.000000 -0.000000
1739
root 5.578277 36.003592 -1.077460 232.404515 -86.501082 -239.608054
Spine 11.719586 1.858907 -3.823809
Head 5.257557 7.102858 3.711120
LeftShoulder -6.119859 7.821914 29.019520
LeftArm 14.336248 -36.735344 -34.686892
LeftForeArm 27.680484 -0.000000 3.956887
LeftHand -11.260333 -0.000000 -16.236320
LeftHandThumb1 -26.253704 0.000000 33.147579
RightShoulder -22.926892 -37.883096 -12.727832
RightArm 52.899632 49.777738 51.966289
RightForeArm 3.736812 0.000000 -1.383065
RightHand -3.265196 0.000000 8.979155
RightHandThumb1 -24.326973 -0.000000 -32.862282
LeftUpLeg 13.147537 12.819653 4.691570
LeftLeg 5.089513 -0.000000 -0.000000
LeftFoot -11.444439 8.930219 -17.048885
LeftToeBase 7.294861 -0.000000 -0.000000
RightUpLeg 13.853218 -10.834611 -13.349931
RightLeg 3.098812 -0.000000 -0.000000
RightFoot -10.823063 0.945548 19.574648
RightToeBase 10.913110 -0.000000 -0.000000
1740
root 5.584537 36.004958 -1.078335 232.321660 -86.506769 -239.492509
Spine 11.701209 1.857438 -3.815495
Head 5.262741 7.136359 3.718145
LeftShoulder -6.131097 7.817285 29.032124
LeftArm 14.354143 -36.726060 -34.708942
LeftForeArm 27.615284 -0.000000 3.962356
LeftHand -11.275818 -0.000000 -16.179016
LeftHandThumb1 -26.253704 0.000000 33.147579
RightShoulder -22.904453 -37.854609 -12.733384
RightArm 52.893943 49.738256 51.948101
RightForeArm 3.801360 -0.000000 -1.359108
RightHand -3.307895 -0.000000 8.934443
RightHandThumb1 -24.326973 -0.000000 -32.862282
LeftUpLeg 13.101516 12.828133 4.693707
LeftLeg 5.094790 -0.000000 -0.000000
LeftFoot -11.439852 8.924436 -17.059522
LeftToeBase 7.315513 -0.000000 -0.000000
RightUpLeg 13.824046 -10.833953 -13.329501
RightLeg 3.067199 -0.000000 -0.000000
RightFoot -10.795323 0.924869 19.576759
RightToeBase 10.940818 -0.000000 -0.000000
1741
root 5.590896 36.005904 -1.078107 232.296267 -86.513022 -239.427224
Spine 11.671631 1.858677 -3.801106
Head 5.269908 7.151901 3.709536
LeftShoulder -6.126420 7.799286 29.032918
LeftArm 14.360748 -36.735338 -34.716806
LeftForeArm 27.603333 -0.000000 3.959585
LeftHand -11.295384 0.000000 -16.159880
LeftHandThumb1 -26.253704 0.000000 33.147579
RightShoulder -22.887664 -37.849146 -12.740318
RightArm 52.941983 49.733681 52.002381
RightForeArm 3.816508 -0.000000 -1.341455
RightHand -3.306988 -0.000000 8.931703
RightHandThumb1 -24.326973 -0.000000 -32.862282
LeftUpLeg 13.053374 12.852823 4.693903
LeftLeg 5.087950 -0.000000 -0.000000
LeftFoot -11.429461 8.919590 -17.034686
LeftToeBase 7.339887 -0.000000 -0.000000
RightUpLeg 13.790102 -10.861111 -13.315410
RightLeg 3.034425 -0.000000 -0.000000
RightFoot -10.763898 0.927660 19.586948
RightToeBase 10.930703 -0.000000 -0.000000
1742
root 5.596608 36.007050 -1.077964 232.315950 -86.517051 -239.413014
Spine 11.648077 1.863114 -3.791446
Head 5.271700 7.176071 3.700775
LeftShoulder -6.121982 7.773124 29.041080
LeftArm 14.359815 -36.736343 -34.724604
LeftForeArm 27.652638 -0.000000 3.963121
LeftHand -11.256146 -0.000000 -16.185110
LeftHandThumb1 -26.253704 0.000000 33.147579
RightShoulder -22.884153 -37.847615 -12.732873
RightArm 52.980915 49.718768 52.030331
RightForeArm 3.810994 -0.000000 -1.335108
RightHand -3.288658 -0.000000 8.969189
RightHandThumb1 -24.326973 -0.000000 -32.862282
LeftUpLeg 13.009302 12.869375 4.693208
LeftLeg 5.087641 -0.000000 -0.000000
LeftFoot -11.410806 8.901417 -17.033169
LeftToeBase 7.353941 -0.000000 -0.000000
RightUpLeg 13.764290 -10.881572 -13.304879
RightLeg 3.001904 -0.000000 -0.000000
RightFoot -10.734456 0.919569 19.555539
RightToeBase 10.921078 -0.000000 -0.000000
1743
root 5.601052 36.008220 -1.077834 232.290057 -86.519084 -239.364992
Spine 11.636910 1.863919 -3.782446
Head 5.261110 7.201468 3.688303
LeftShoulder -6.118372 7.767029 29.040994
LeftArm 14.358933 -36.759928 -34.727192
LeftForeArm 27.683666 -0.000000 3.961717
LeftHand -11.236109 -0.000000 -16.177353
LeftHandThumb1 -26.253704 0.000000 33.147579
RightShoulder -22.873886 -37.838308 -12.728944
RightArm 52.986643 49.671297 51.993627
RightForeArm 3.868552 -0.000000 -1.367851
RightHand -3.231354 -0.000000 8.985056
RightHandThumb1 -24.326973 -0.000000 -32.862282
LeftUpLeg 12.990121 12.882986 4.692574
LeftLeg 5.067078 -0.000000 -0.000000
LeftFoot -11.390694 8.893626 -17.036674
LeftToeBase 7.331433 -0.000000 -0.000000
RightUpLeg 13.761950 -10.906378 -13.299839
RightLeg 2.949402 -0.000000 -0.000000
RightFoot -10.700759 0.923032 19.566038
RightToeBase 10.942817 -0.000000 -0.000000
